#!OML:ASF F:\twosubjects\two\Thursday\Session 1\Rory.ASF
:FULLY-SPECIFIED
:DEGREES
189
root -2.07814 18.238 1.38255 -360.064 38.013 -357.853
lowerback 3.36134 1.06484 -5.30947
upperback 2.18706 1.32929 -4.21916
thorax 0.350862 0.660787 -1.40623
lowerneck -13.5253 2.6998 2.23131
upperneck 28.1847 3.74179 -0.4806
head 11.4513 1.9664 -0.0261281
rclavicle 1.0138e-013 4.77083e-015
rhumerus -11.3649 39.3628 -81.3306
rradius 102.401
rwrist -12.1079
rhand -18.7466 -2.16685
rfingers 7.12502
rthumb 7.54971 -32.0121
lclavicle 1.0138e-013 4.77083e-015
lhumerus -25.6629 -22.1533 97.1422
lradius 99.0623
lwrist 68.37
lhand -8.21163 49.5002
lfingers 7.12502
lthumb 17.7052 78.7141
rfemur -16.4032 -9.87615 19.9424
rtibia 49.8185
rfoot -18.5637 -19.7362
rtoes 15.2205
lfemur -17.0749 6.17607 -16.0575
ltibia 22.9849
lfoot -3.756 19.6469
ltoes 13.69
190
root -2.12147 18.2167 1.30948 -359.652 37.7502 -357.514
lowerback 3.07673 1.05021 -5.47783
upperback 2.09685 1.32455 -4.30263
thorax 0.41603 0.657111 -1.39384
lowerneck -13.3758 2.67649 2.35873
upperneck 27.7918 3.70679 -0.63948
head 11.2762 1.94274 -0.117108
rclavicle 2.77305e-014 -1.59028e-015
rhumerus -11.0893 39.3595 -80.8101
rradius 102.8
rwrist -12.8454
rhand -18.554 -2.81267
rfingers 7.12502
rthumb 7.73562 -32.6512
lclavicle 2.77305e-014 -1.59028e-015
lhumerus -25.6729 -23.0021 97.0993
lradius 99.4754
lwrist 69.6534
lhand -8.69742 48.644
lfingers 7.12502
lthumb 17.2377 77.8994
rfemur -16.0183 -10.0994 19.7488
rtibia 49.4038
rfoot -17.6917 -19.6097
rtoes 10.5481
lfemur -17.5198 6.26484 -16.4084
ltibia 22.9087
lfoot -3.32383 19.7689
ltoes 12.5576
191
root -2.158 18.1993 1.24461 -359.148 37.3195 -356.761
lowerback 2.79977 1.07071 -5.84565
upperback 2.05922 1.37069 -4.56016
thorax 0.531285 0.678157 -1.45184
lowerneck -13.4075 2.6582 2.35475
upperneck 27.6834 3.65942 -0.593407
head 11.2393 1.92466 -0.106808
rclavicle -6.26172e-015 -3.18055e-015
rhumerus -10.6166 39.3255 -80.2506
rradius 103.161
rwrist -13.504
rhand -18.3428 -3.03747
rfingers 7.12502
rthumb 7.93948 -32.8684
lclavicle -6.26172e-015 -3.18055e-015
lhumerus -26.023 -23.2166 97.3927
lradius 100.059
lwrist 69.9824
lhand -10.0694 48.1503
lfingers 7.12502
lthumb 15.9168 77.5162
rfemur -15.4015 -10.256 19.1228
rtibia 48.7033
rfoot -16.8058 -19.0001
rtoes 0.0205844
lfemur -17.7464 6.5618 -17.1574
ltibia 22.8405
lfoot -2.87016 19.9767
ltoes 10.1799
192
root -2.19115 18.2001 1.19012 -359.223 36.649 -356.557
lowerback 2.68272 1.09373 -5.97044
upperback 2.08881 1.41208 -4.58458
thorax 0.624923 0.695554 -1.4062
lowerneck -14.1587 2.70414 1.87604
upperneck 28.2913 3.74233 -0.233224
head 11.6069 1.95076 0.136301
rclavicle 4.46272e-014 2.70347e-014
rhumerus -9.92459 39.7087 -79.5097
rradius 103.431
rwrist -13.8872
rhand -18.2235 -3.34122
rfingers 7.12502
rthumb 8.05462 -33.1677
lclavicle 4.46272e-014 2.70347e-014
lhumerus -25.7397 -22.3933 98.0792
lradius 100.6
lwrist 69.1886
lhand -11.7076 49.2174
lfingers 7.12502
lthumb 14.3387 78.7022
rfemur -14.407 -9.98629 18.9122
rtibia 47.6181
rfoot -16.9589 -17.9273
rtoes -2.45426
lfemur -17.5686 7.23223 -17.3833
ltibia 22.6183
lfoot -2.55592 20.108
ltoes 9.20342
193
root -2.23143 18.2074 1.13405 -359.533 36.0956 -356.903
lowerback 2.52299 1.16952 -5.62248
upperback 2.09425 1.53214 -4.54088
thorax 0.724203 0.75622 -1.553
lowerneck -14.2442 2.68573 1.89487
upperneck 28.1458 3.72797 -0.330867
head 11.5703 1.93152 0.09468
rclavicle -6.75868e-015 -1.59028e-015
rhumerus -9.50386 39.8593 -78.9689
rradius 103.684
rwrist -14.0335
rhand -17.9894 -3.55124
rfingers 7.12502
rthumb 8.28058 -33.369
lclavicle -6.75868e-015 -1.59028e-015
lhumerus -25.6131 -22.1789 98.4502
lradius 101.348
lwrist 68.9038
lhand -12.6077 50.2375
lfingers 7.12502
lthumb 13.4713 79.7818
rfemur -13.5141 -9.41274 19.2168
rtibia 46.2465
rfoot -17.905 -17.183
rtoes 1.22135
lfemur -17.3889 7.57514 -16.9881
ltibia 22.2411
lfoot -3.01279 20.3398
ltoes 12.6134
194
root -2.281 18.2179 1.08069 -359.546 35.7779 -356.848
lowerback 2.35942 1.29177 -5.61412
upperback 2.08583 1.7108 -4.62817
thorax 0.807888 0.845225 -1.64764
lowerneck -14.0096 2.5746 2.24224
upperneck 27.6451 3.55568 -0.655904
head 11.3425 1.84926 -0.116453
rclavicle -9.53172e-014 -3.18055e-015
rhumerus -9.25577 39.5618 -78.5806
rradius 103.894
rwrist -14.305
rhand -17.9288 -3.53828
rfingers 7.12502
rthumb 8.33904 -33.3537
lclavicle -9.53172e-014 -3.18055e-015
lhumerus -25.8428 -22.7469 98.6234
lradius 102.099
lwrist 69.2163
lhand -13.2694 50.7807
lfingers 7.12502
lthumb 12.8335 80.3662
rfemur -12.6851 -8.905 19.2359
rtibia 44.6829
rfoot -18.8797 -17.2834
rtoes -0.834326
lfemur -17.2609 7.62034 -16.9292
ltibia 21.7787
lfoot -3.09505 20.5514
ltoes 15.0001
195
root -2.33789 18.2194 1.0171 -359.438 35.6733 -356.591
lowerback 2.42208 1.29715 -5.89863
upperback 2.07179 1.7069 -4.62482
thorax 0.751006 0.841216 -1.48819
lowerneck -14.4417 2.45009 1.96155
upperneck 27.8577 3.41359 -0.549707
head 11.5006 1.76523 -0.0416187
rclavicle 5.76476e-014 2.70347e-014
rhumerus -8.89763 39.5117 -78.0541
rradius 104.126
rwrist -14.6069
rhand -17.8737 -3.57986
rfingers 7.12502
rthumb 8.39221 -33.3931
lclavicle 5.76476e-014 2.70347e-014
lhumerus -25.7542 -22.9398 98.9504
lradius 102.631
lwrist 69.7209
lhand -14.1827 51.7451
lfingers 7.12502
lthumb 11.9529 81.3839
rfemur -12.032 -8.26522 19.0681
rtibia 43.1396
rfoot -19.9472 -17.5873
rtoes -1.40938
lfemur -17.3164 7.66814 -17.1368
ltibia 21.4122
lfoot -2.55416 20.5945
ltoes 14.8404
196
root -2.39863 18.2274 0.929894 -359.445 35.8671 -356.758
lowerback 2.69558 1.15831 -5.63437
upperback 1.95844 1.49044 -4.55291
thorax 0.487718 0.740266 -1.56331
lowerneck -14.6024 2.37253 1.66184
upperneck 27.9112 3.35629 -0.469951
head 11.5449 1.71605 0.0332901
rclavicle 3.03147e-014 1.59028e-014
rhumerus -8.58345 39.5922 -77.5708
rradius 104.364
rwrist -14.7146
rhand -17.5476 -3.58926
rfingers 7.12502
rthumb 8.70697 -33.3897
lclavicle 3.03147e-014 1.59028e-014
lhumerus -25.7352 -22.9114 99.2952
lradius 103.26
lwrist 70.2504
lhand -15.131 52.8624
lfingers 7.12502
lthumb 11.0384 82.5522
rfemur -11.7629 -7.52472 19.1992
rtibia 41.7294
rfoot -20.9166 -17.3534
rtoes 3.37547
lfemur -17.5978 7.3348 -17.0134
ltibia 21.0575
lfoot -2.47626 20.7693
ltoes 16.1675
197
root -2.44013 18.222 0.864308 -359.78 35.3351 -357.131
lowerback 2.68366 1.24545 -5.13372
upperback 1.97607 1.61653 -4.5158
thorax 0.521811 0.806383 -1.80546
lowerneck -14.5293 2.37862 1.65291
upperneck 27.6294 3.37997 -0.552188
head 11.4233 1.71439 0.00417976
rclavicle 4.2043e-014 -1.59028e-015
rhumerus -8.16617 39.6996 -77.0805
rradius 104.52
rwrist -14.7805
rhand -16.9964 -3.58488
rfingers 7.12502
rthumb 9.23885 -33.3625
lclavicle 4.2043e-014 -1.59028e-015
lhumerus -25.7674 -22.9026 99.4309
lradius 103.946
lwrist 70.2654
lhand -15.2438 53.568
lfingers 7.12502
lthumb 10.9296 83.2636
rfemur -11.3077 -6.61148 19.503
rtibia 40.541
rfoot -21.0702 -17.0525
rtoes 3.64369
lfemur -17.477 7.25695 -16.5649
ltibia 20.8935
lfoot -3.03716 21.2752
ltoes 18.262
198
root -2.48133 18.2076 0.806362 -360.182 34.8496 -357.394
lowerback 2.71966 1.30613 -4.86633
upperback 2.07455 1.70443 -4.42983
thorax 0.606881 0.849913 -1.86698
lowerneck -14.5808 2.37282 1.64337
upperneck 27.4243 3.42373 -0.763798
head 11.3598 1.70457 -0.0667094
rclavicle 5.75482e-014 1.90833e-014
rhumerus -7.62682 40 -76.3824
rradius 104.682
rwrist -15.0398
rhand -16.8259 -3.71918
rfingers 7.12502
rthumb 9.40337 -33.4894
lclavicle 5.75482e-014 1.90833e-014
lhumerus -25.6761 -22.8617 99.5144
lradius 104.541
lwrist 70.1049
lhand -14.9394 53.687
lfingers 7.12502
lthumb 11.2232 83.3668
rfemur -10.7546 -6.0295 19.8044
rtibia 39.5787
rfoot -20.6193 -17.2349
rtoes -1.2816
lfemur -17.3077 6.77364 -16.1706
ltibia 20.9475
lfoot -3.5882 22.1474
ltoes 19.6502
199
root -2.51254 18.1988 0.753327 -360.55 34.1299 -357.688
lowerback 2.5796 1.44993 -4.55282
upperback 2.12678 1.91422 -4.35927
thorax 0.745346 0.954785 -1.96858
lowerneck -14.739 2.35076 1.7577
upperneck 27.4937 3.42894 -1.00692
head 11.4257 1.68617 -0.171882
rclavicle -8.04084e-014 3.18055e-014
rhumerus -7.11096 40.2764 -75.7517
rradius 104.822
rwrist -15.6086
rhand -17.3302 -4.13136
rfingers 7.12502
rthumb 8.91676 -33.9229
lclavicle -8.04084e-014 3.18055e-014
lhumerus -25.7778 -22.7896 99.6495
lradius 105.142
lwrist 70.2533
lhand -15.1397 54.0253
lfingers 7.12502
lthumb 11.03 83.7155
rfemur -10.3995 -5.08487 20.0992
rtibia 38.8683
rfoot -20.5053 -16.9897
rtoes -0.888261
lfemur -17.2151 6.56639 -15.8142
ltibia 21.0945
lfoot -3.6279 23.0623
ltoes 19.1287
200
root -2.55455 18.1942 0.689231 -360.877 33.6439 -358.165
lowerback 2.51146 1.54896 -4.0863
upperback 2.12514 2.05676 -4.29149
thorax 0.794429 1.02958 -2.15914
lowerneck -15.0425 2.26242 1.71363
upperneck 27.7055 3.27534 -0.879594
head 11.5626 1.62512 -0.134193
rclavicle -1.00386e-014 1.74931e-014
rhumerus -6.76931 40.3454 -75.3547
rradius 104.976
rwrist -16.1304
rhand -17.7673 -4.53616
rfingers 7.12502
rthumb 8.49494 -34.3453
lclavicle -1.00386e-014 1.74931e-014
lhumerus -25.6172 -22.9273 99.7167
lradius 105.463
lwrist 70.5506
lhand -15.812 54.8788
lfingers 7.12502
lthumb 10.3816 84.6025
rfemur -10.3927 -4.12972 20.6136
rtibia 38.4655
rfoot -20.8288 -16.7007
rtoes 4.52917
lfemur -17.37 6.12246 -15.3004
ltibia 21.2567
lfoot -3.41535 23.9296
ltoes 17.9785
201
root -2.62706 18.1807 0.604143 -360.915 33.961 -358.498
lowerback 2.71116 1.3889 -3.93136
upperback 2.07515 1.82628 -4.15563
thorax 0.628817 0.916024 -2.10681
lowerneck -15.2452 2.17269 1.62564
upperneck 27.6698 3.15669 -0.862917
head 11.5859 1.56169 -0.127987
rclavicle -1.29608e-013 6.04305e-014
rhumerus -6.42272 40.3785 -74.8555
rradius 105.175
rwrist -16.2364
rhand -18.0017 -4.61092
rfingers 7.12502
rthumb 8.26873 -34.4291
lclavicle -1.29608e-013 6.04305e-014
lhumerus -25.0393 -23.1373 99.815
lradius 105.546
lwrist 70.7393
lhand -16.4869 55.9884
lfingers 7.12502
lthumb 9.7304 85.7437
rfemur -10.7519 -3.81973 21.1232
rtibia 38.2493
rfoot -20.9235 -17.2603
rtoes 5.40224
lfemur -17.9905 5.20148 -14.9388
ltibia 21.3829
lfoot -3.40499 24.533
ltoes 17.5486
202
root -2.67109 18.146 0.538529 -361.338 33.7178 -358.61
lowerback 3.03831 1.4064 -3.84573
upperback 2.1654 1.83353 -4.07979
thorax 0.538575 0.92045 -2.0842
lowerneck -15.6168 2.17655 1.5143
upperneck 27.8737 3.18818 -0.851874
head 11.7385 1.56172 -0.0944555
rclavicle 7.36497e-014 1.59028e-014
rhumerus -6.01149 40.5613 -74.2374
rradius 105.37
rwrist -16.3724
rhand -18.2038 -4.71589
rfingers 7.12502
rthumb 8.07362 -34.5417
lclavicle 7.36497e-014 1.59028e-014
lhumerus -24.8591 -23.0748 100.012
lradius 105.909
lwrist 70.6366
lhand -16.7097 57.451
lfingers 7.12502
lthumb 9.51545 87.2161
rfemur -10.5446 -3.39428 21.2725
rtibia 38.1295
rfoot -21.0695 -17.455
rtoes 5.29964
lfemur -17.8451 5.25473 -14.8316
ltibia 21.4056
lfoot -2.96143 24.774
ltoes 15.3711
